<?xml version="1.0" encoding="UTF-8" standalone="no"?>
<!DOCTYPE svg PUBLIC "-//W3C//DTD SVG 1.1//EN"
 "http://www.w3.org/Graphics/SVG/1.1/DTD/svg11.dtd">
<!-- Generated by graphviz version 11.0.0 (0)
 -->
<!-- Title: g Pages: 1 -->
<svg width="613pt" height="174pt"
 viewBox="0.00 0.00 613.25 174.00" xmlns="http://www.w3.org/2000/svg" xmlns:xlink="http://www.w3.org/1999/xlink">
<g id="graph0" class="graph" transform="scale(1 1) rotate(0) translate(4 170)">
<title>g</title>
<polygon fill="white" stroke="none" points="-4,4 -4,-170 609.25,-170 609.25,4 -4,4"/>
<!-- dataset (version_1) -->
<g id="node1" class="node">
<title>dataset (version_1)</title>
<polygon fill="none" stroke="black" points="0,-27.25 0,-164.75 205.75,-164.75 205.75,-27.25 0,-27.25"/>
<text text-anchor="middle" x="102.88" y="-145.55" font-family="Times,serif" font-size="16.00">my_dataset (version_1)</text>
<polyline fill="none" stroke="black" points="0,-137.25 205.75,-137.25"/>
<text text-anchor="middle" x="102.88" y="-118.05" font-family="Times,serif" font-size="16.00">CHUNK 0</text>
<polyline fill="none" stroke="black" points="0,-109.75 205.75,-109.75"/>
<text text-anchor="middle" x="102.88" y="-90.55" font-family="Times,serif" font-size="16.00">CHUNK 1</text>
<polyline fill="none" stroke="black" points="0,-82.25 205.75,-82.25"/>
<text text-anchor="middle" x="102.88" y="-63.05" font-family="Times,serif" font-size="16.00">...</text>
<polyline fill="none" stroke="black" points="0,-54.75 205.75,-54.75"/>
<text text-anchor="middle" x="102.88" y="-35.55" font-family="Times,serif" font-size="16.00">CHUNK n</text>
</g>
<!-- raw_data -->
<g id="node3" class="node">
<title>raw_data</title>
<polygon fill="none" stroke="black" points="241.75,-0.5 241.75,-165.5 363.5,-165.5 363.5,-0.5 241.75,-0.5"/>
<text text-anchor="middle" x="302.62" y="-146.3" font-family="Times,serif" font-size="16.00">raw_data</text>
<polyline fill="none" stroke="black" points="241.75,-138 363.5,-138"/>
<text text-anchor="middle" x="302.62" y="-118.8" font-family="Times,serif" font-size="16.00">CHUNK 0</text>
<polyline fill="none" stroke="black" points="241.75,-110.5 363.5,-110.5"/>
<text text-anchor="middle" x="302.62" y="-91.3" font-family="Times,serif" font-size="16.00">CHUNK 1</text>
<polyline fill="none" stroke="black" points="241.75,-83 363.5,-83"/>
<text text-anchor="middle" x="302.62" y="-63.8" font-family="Times,serif" font-size="16.00">...</text>
<polyline fill="none" stroke="black" points="241.75,-55.5 363.5,-55.5"/>
<text text-anchor="middle" x="302.62" y="-36.3" font-family="Times,serif" font-size="16.00">CHUNK n</text>
<polyline fill="none" stroke="black" points="241.75,-28 363.5,-28"/>
<text text-anchor="middle" x="302.62" y="-8.8" font-family="Times,serif" font-size="16.00">CHUNK n+1</text>
</g>
<!-- dataset (version_1)&#45;&gt;raw_data -->
<g id="edge1" class="edge">
<title>dataset (version_1):f0&#45;&gt;raw_data:f0</title>
<path fill="none" stroke="black" d="M205.75,-123.5C217.13,-123.5 222.43,-123.88 230.3,-124.1"/>
<polygon fill="black" stroke="black" points="230.19,-127.6 240.24,-124.23 230.28,-120.6 230.19,-127.6"/>
</g>
<!-- dataset (version_1)&#45;&gt;raw_data -->
<g id="edge2" class="edge">
<title>dataset (version_1):f1&#45;&gt;raw_data:f1</title>
<path fill="none" stroke="black" d="M205.75,-96C217.13,-96 222.43,-96.38 230.3,-96.6"/>
<polygon fill="black" stroke="black" points="230.19,-100.1 240.24,-96.73 230.28,-93.1 230.19,-100.1"/>
</g>
<!-- dataset (version_1)&#45;&gt;raw_data -->
<g id="edge3" class="edge">
<title>dataset (version_1):fdot&#45;&gt;raw_data:fdot</title>
<path fill="none" stroke="black" d="M205.75,-68.5C217.13,-68.5 222.43,-68.88 230.3,-69.1"/>
<polygon fill="black" stroke="black" points="230.19,-72.6 240.24,-69.23 230.28,-65.6 230.19,-72.6"/>
</g>
<!-- dataset (version_1)&#45;&gt;raw_data -->
<g id="edge4" class="edge">
<title>dataset (version_1):fn&#45;&gt;raw_data:fn</title>
<path fill="none" stroke="black" d="M205.75,-41C217.13,-41 222.43,-41.38 230.3,-41.6"/>
<polygon fill="black" stroke="black" points="230.19,-45.1 240.24,-41.73 230.28,-38.1 230.19,-45.1"/>
</g>
<!-- dataset (version_2) -->
<g id="node2" class="node">
<title>dataset (version_2)</title>
<polygon fill="none" stroke="black" points="399.5,-27.25 399.5,-164.75 605.25,-164.75 605.25,-27.25 399.5,-27.25"/>
<text text-anchor="middle" x="502.38" y="-145.55" font-family="Times,serif" font-size="16.00">my_dataset (version_2)</text>
<polyline fill="none" stroke="black" points="399.5,-137.25 605.25,-137.25"/>
<text text-anchor="middle" x="502.38" y="-118.05" font-family="Times,serif" font-size="16.00">CHUNK 0</text>
<polyline fill="none" stroke="black" points="399.5,-109.75 605.25,-109.75"/>
<text text-anchor="middle" x="502.38" y="-90.55" font-family="Times,serif" font-size="16.00">CHUNK 1</text>
<polyline fill="none" stroke="black" points="399.5,-82.25 605.25,-82.25"/>
<text text-anchor="middle" x="502.38" y="-63.05" font-family="Times,serif" font-size="16.00">...</text>
<polyline fill="none" stroke="black" points="399.5,-54.75 605.25,-54.75"/>
<text text-anchor="middle" x="502.38" y="-35.55" font-family="Times,serif" font-size="16.00">CHUNK n</text>
</g>
<!-- dataset (version_2)&#45;&gt;raw_data -->
<g id="edge6" class="edge">
<title>dataset (version_2):fdot&#45;&gt;raw_data:fdot</title>
<path fill="none" stroke="black" d="M399.5,-68.5C388.12,-68.5 382.82,-68.88 374.95,-69.1"/>
<polygon fill="black" stroke="black" points="374.97,-65.6 365.01,-69.23 375.06,-72.6 374.97,-65.6"/>
</g>
<!-- dataset (version_2)&#45;&gt;raw_data -->
<g id="edge7" class="edge">
<title>dataset (version_2):f1&#45;&gt;raw_data:fn1</title>
<path fill="none" stroke="black" d="M399.5,-96C364.45,-96 394.17,-32.29 374.3,-17.35"/>
<polygon fill="black" stroke="black" points="375.53,-14.07 364.95,-14.67 373.6,-20.79 375.53,-14.07"/>
</g>
<!-- dataset (version_2)&#45;&gt;raw_data -->
<g id="edge8" class="edge">
<title>dataset (version_2):fn&#45;&gt;raw_data:fn</title>
<path fill="none" stroke="black" d="M399.5,-41C388.12,-41 382.82,-41.38 374.95,-41.6"/>
<polygon fill="black" stroke="black" points="374.97,-38.1 365.01,-41.73 375.06,-45.1 374.97,-38.1"/>
</g>
<!-- raw_data&#45;&gt;dataset (version_2) -->
<g id="edge5" class="edge">
<title>raw_data:f0&#45;&gt;dataset (version_2):f0</title>
<path fill="none" stroke="black" d="M374.95,-124.1C382.82,-123.88 388.12,-123.5 399.5,-123.5"/>
<polygon fill="black" stroke="black" points="374.97,-120.6 365.01,-124.23 375.06,-127.6 374.97,-120.6"/>
</g>
</g>
</svg>
