<?xml version="1.0" encoding="UTF-8" standalone="no"?>
<!DOCTYPE svg PUBLIC "-//W3C//DTD SVG 1.1//EN"
 "http://www.w3.org/Graphics/SVG/1.1/DTD/svg11.dtd">
<!-- Generated by graphviz version 11.0.0 (0)
 -->
<!-- Title: g Pages: 1 -->
<svg width="348pt" height="147pt"
 viewBox="0.00 0.00 347.50 146.50" xmlns="http://www.w3.org/2000/svg" xmlns:xlink="http://www.w3.org/1999/xlink">
<g id="graph0" class="graph" transform="scale(1 1) rotate(0) translate(4 142.5)">
<title>g</title>
<polygon fill="white" stroke="none" points="-4,4 -4,-142.5 343.5,-142.5 343.5,4 -4,4"/>
<!-- dataset (version_1) -->
<g id="node1" class="node">
<title>dataset (version_1)</title>
<polygon fill="none" stroke="black" points="0,-0.5 0,-138 205.75,-138 205.75,-0.5 0,-0.5"/>
<text text-anchor="middle" x="102.88" y="-118.8" font-family="Times,serif" font-size="16.00">my_dataset (version_1)</text>
<polyline fill="none" stroke="black" points="0,-110.5 205.75,-110.5"/>
<text text-anchor="middle" x="102.88" y="-91.3" font-family="Times,serif" font-size="16.00">CHUNK 0</text>
<polyline fill="none" stroke="black" points="0,-83 205.75,-83"/>
<text text-anchor="middle" x="102.88" y="-63.8" font-family="Times,serif" font-size="16.00">CHUNK 1</text>
<polyline fill="none" stroke="black" points="0,-55.5 205.75,-55.5"/>
<text text-anchor="middle" x="102.88" y="-36.3" font-family="Times,serif" font-size="16.00">...</text>
<polyline fill="none" stroke="black" points="0,-28 205.75,-28"/>
<text text-anchor="middle" x="102.88" y="-8.8" font-family="Times,serif" font-size="16.00">CHUNK n</text>
</g>
<!-- raw_data -->
<g id="node2" class="node">
<title>raw_data</title>
<polygon fill="none" stroke="black" points="241.75,-0.5 241.75,-138 339.5,-138 339.5,-0.5 241.75,-0.5"/>
<text text-anchor="middle" x="290.62" y="-118.8" font-family="Times,serif" font-size="16.00">raw_data</text>
<polyline fill="none" stroke="black" points="241.75,-110.5 339.5,-110.5"/>
<text text-anchor="middle" x="290.62" y="-91.3" font-family="Times,serif" font-size="16.00">CHUNK 0</text>
<polyline fill="none" stroke="black" points="241.75,-83 339.5,-83"/>
<text text-anchor="middle" x="290.62" y="-63.8" font-family="Times,serif" font-size="16.00">CHUNK 1</text>
<polyline fill="none" stroke="black" points="241.75,-55.5 339.5,-55.5"/>
<text text-anchor="middle" x="290.62" y="-36.3" font-family="Times,serif" font-size="16.00">...</text>
<polyline fill="none" stroke="black" points="241.75,-28 339.5,-28"/>
<text text-anchor="middle" x="290.62" y="-8.8" font-family="Times,serif" font-size="16.00">CHUNK n</text>
</g>
<!-- dataset (version_1)&#45;&gt;raw_data -->
<g id="edge1" class="edge">
<title>dataset (version_1):f0&#45;&gt;raw_data:f0</title>
<path fill="none" stroke="black" d="M205.75,-96.75C217.12,-96.75 222.43,-96.75 230.3,-96.75"/>
<polygon fill="black" stroke="black" points="230.24,-100.25 240.24,-96.75 230.24,-93.25 230.24,-100.25"/>
</g>
<!-- dataset (version_1)&#45;&gt;raw_data -->
<g id="edge2" class="edge">
<title>dataset (version_1):f1&#45;&gt;raw_data:f1</title>
<path fill="none" stroke="black" d="M205.75,-69.25C217.12,-69.25 222.43,-69.25 230.3,-69.25"/>
<polygon fill="black" stroke="black" points="230.24,-72.75 240.24,-69.25 230.24,-65.75 230.24,-72.75"/>
</g>
<!-- dataset (version_1)&#45;&gt;raw_data -->
<g id="edge3" class="edge">
<title>dataset (version_1):fdot&#45;&gt;raw_data:fdot</title>
<path fill="none" stroke="black" d="M205.75,-41.75C217.12,-41.75 222.43,-41.75 230.3,-41.75"/>
<polygon fill="black" stroke="black" points="230.24,-45.25 240.24,-41.75 230.24,-38.25 230.24,-45.25"/>
</g>
<!-- dataset (version_1)&#45;&gt;raw_data -->
<g id="edge4" class="edge">
<title>dataset (version_1):fn&#45;&gt;raw_data:fn</title>
<path fill="none" stroke="black" d="M205.75,-14.25C217.12,-14.25 222.43,-14.25 230.3,-14.25"/>
<polygon fill="black" stroke="black" points="230.24,-17.75 240.24,-14.25 230.24,-10.75 230.24,-17.75"/>
</g>
</g>
</svg>
